<?xml version="1.0" encoding="utf-8"?>
<!-- Generator: Adobe Illustrator 18.1.1, SVG Export Plug-In . SVG Version: 6.00 Build 0)  -->
<svg version="1.1" id="Ebene_1" xmlns="http://www.w3.org/2000/svg" xmlns:xlink="http://www.w3.org/1999/xlink" x="0px" y="0px"
	 viewBox="0 0 24 24" width="50" height="50" enable-background="new 0 0 24 24" xml:space="preserve" fill="#00324b">
<rect fill="none" width="24" height="24"/>
<g>
	<path d="M16.8,4.6v-1c0.5,0,0.8-0.1,1-0.1c0.3-0.1,0.6-0.2,0.8-0.4c0.1-0.1,0.2-0.3,0.3-0.6c0-0.1,0.1-0.2,0.1-0.3h1.3V10h-1.6V4.6
		H16.8z"/>
</g>
<g>
	<path d="M17.5,20.1c0,0.5,0.2,0.9,0.6,1.1c0.2,0.1,0.4,0.2,0.7,0.2c0.5,0,0.9-0.2,1.2-0.6c0.3-0.4,0.6-1.2,0.7-2.3
		c-0.2,0.3-0.5,0.6-0.8,0.7c-0.3,0.1-0.7,0.2-1,0.2c-0.7,0-1.3-0.2-1.8-0.7c-0.4-0.5-0.6-1.1-0.6-1.8c0-0.7,0.2-1.3,0.6-1.8
		s1.1-0.8,1.9-0.8c1.1,0,1.9,0.5,2.3,1.5c0.2,0.6,0.4,1.2,0.4,2.1c0,0.9-0.1,1.8-0.4,2.5c-0.5,1.2-1.3,1.8-2.4,1.8
		c-0.8,0-1.3-0.2-1.7-0.6c-0.4-0.4-0.6-0.9-0.6-1.5H17.5z M20,18.2c0.3-0.3,0.5-0.7,0.5-1.3c0-0.6-0.1-1-0.4-1.3
		c-0.3-0.3-0.6-0.4-1.1-0.4c-0.5,0-0.8,0.2-1.1,0.5s-0.4,0.7-0.4,1.3c0,0.5,0.1,0.9,0.4,1.2s0.6,0.4,1.2,0.4
		C19.3,18.6,19.7,18.4,20,18.2z"/>
</g>
<g>
	<rect x="6" y="2" width="2" height="19"/>
</g>
<g>
	<polygon points="7,22.4 0.3,15.7 1.7,14.3 7,19.6 12.3,14.3 13.7,15.7 	"/>
</g>
</svg>
