<?xml version="1.0" encoding="utf-8"?>
<!-- Generator: Adobe Illustrator 18.1.1, SVG Export Plug-In . SVG Version: 6.00 Build 0)  -->
<svg version="1.1" id="Ebene_1" xmlns="http://www.w3.org/2000/svg" xmlns:xlink="http://www.w3.org/1999/xlink" x="0px" y="0px"
	 viewBox="0 0 24 24" width="30" height="30" enable-background="new 0 0 24 24" xml:space="preserve" fill="#00324b">
<rect fill="none" width="24" height="24"/>
<g>
	<path d="M8,17.1c0,1.3-0.8,2.4-2,2.8V23H4l0-3.1c-1.1-0.4-2-1.5-2-2.8c0-1.3,0.8-2.4,2-2.8L4,1h2v13.3C7.1,14.7,8,15.8,8,17.1z
		 M7,17.1c0-1.1-0.9-2-2-2c-1.1,0-2,0.9-2,2c0,1.1,0.9,2,2,2C6.1,19.1,7,18.2,7,17.1z"/>
</g>
<g>
	<path d="M22,13c0,1.3-0.8,2.4-2,2.8V23h-2l0-7.2c-1.1-0.4-2-1.5-2-2.8c0-1.3,0.8-2.4,2-2.8L18,1h2v9.2C21.1,10.6,22,11.7,22,13z
		 M21,13c0-1.1-0.9-2-2-2c-1.1,0-2,0.9-2,2c0,1.1,0.9,2,2,2C20.1,15,21,14.1,21,13z"/>
</g>
<g>
	<path d="M15,6c0,1.3-0.8,2.4-2,2.8V23h-2l0-14.2C9.9,8.4,9,7.3,9,6c0-1.3,0.8-2.4,2-2.8L11,1h2v2.2C14.1,3.6,15,4.7,15,6z M14,6
		c0-1.1-0.9-2-2-2c-1.1,0-2,0.9-2,2c0,1.1,0.9,2,2,2C13.1,8,14,7.1,14,6z"/>
</g>
</svg>
