<?xml version="1.0" encoding="utf-8"?>
<!-- Generator: Adobe Illustrator 18.1.1, SVG Export Plug-In . SVG Version: 6.00 Build 0)  -->
<svg version="1.1" id="Ebene_1" xmlns="http://www.w3.org/2000/svg" xmlns:xlink="http://www.w3.org/1999/xlink" x="0px" y="0px"
	 viewBox="0 0 24 24" width="50" height="50" enable-background="new 0 0 24 24" xml:space="preserve" fill="#00324b">
<rect fill="none" width="24" height="24"/>
<g>
	<path d="M12,21c-7.5,0-11.6-8.2-11.8-8.6L0,12l0.2-0.4C0.4,11.2,4.5,3,12,3s11.6,8.2,11.8,8.6L24,12l-0.2,0.4
		C23.6,12.8,19.5,21,12,21z M2.2,12c0.9,1.6,4.4,7,9.8,7c5.4,0,8.9-5.4,9.8-7c-0.9-1.6-4.4-7-9.8-7C6.6,5,3.1,10.4,2.2,12z"/>
</g>
<g>
	<path d="M12,8c2.2,0,4,1.8,4,4s-1.8,4-4,4s-4-1.8-4-4S9.8,8,12,8 M12,7c-2.8,0-5,2.2-5,5s2.2,5,5,5s5-2.2,5-5S14.8,7,12,7L12,7z"/>
</g>
<g>
	<rect x="11" y="-0.7" transform="matrix(0.7071 0.7071 -0.7071 0.7071 12 -4.9706)" width="2" height="25.5"/>
</g>
</svg>
