<?xml version="1.0" encoding="iso-8859-1"?>
<svg version="1.1" xmlns="http://www.w3.org/2000/svg" xmlns:xlink="http://www.w3.org/1999/xlink" x="0px" y="0px"
	 viewBox="0 0 32 32" style="enable-background:new 0 0 32 32;" xml:space="preserve" width="32px" height="32px" class="diy-icons">
<g id="Marker">
	<g>
		<path d="M 34.416016 6.3828125 C 34.023761 6.4086347 33.640446 6.5847246 33.361328 6.9042969 L 24.818359 16.652344 C 24.262886 17.290071 24.327866 18.256165 24.964844 18.8125 L 52.228516 42.707031 C 52.863556 43.265574 53.831225 43.204597 54.390625 42.570312 L 62.935547 32.822266 C 63.495994 32.18506 63.432113 31.214486 62.792969 30.65625 L 35.529297 6.7617188 C 35.210694 6.481497 34.80827 6.3569903 34.416016 6.3828125 z M 22.089844 20.53125 C 21.386793 20.589039 20.81309 21.117966 20.701172 21.814453 L 18.111328 37.892578 L 13.673828 42.949219 C 13.117231 43.587222 13.184135 44.554876 13.822266 45.111328 L 28.275391 57.787109 C 28.911422 58.345546 29.87892 58.28239 30.4375 57.646484 L 34.896484 52.552734 L 49.875 47.304688 C 50.981101 46.915638 51.258562 45.480066 50.376953 44.707031 L 23.226562 20.90625 C 22.914355 20.631819 22.504154 20.497397 22.089844 20.53125 z M 14.332031 49.660156 C 13.885247 49.650707 13.456485 49.835196 13.158203 50.167969 L 7.4296875 56.583984 C 6.752409 57.34243 6.9880726 58.53739 7.9023438 58.982422 L 17.488281 62.625 C 18.104663 62.92672 18.84695 62.780864 19.304688 62.269531 L 22.732422 58.599609 C 23.302744 57.963538 23.243034 56.983887 22.599609 56.421875 L 15.3125 50.042969 C 15.040911 49.802969 14.694386 49.667987 14.332031 49.660156 z "
		transform="translate(-1 -1) scale(0.5 0.5)"
		/>
	</g>
</g>
</svg>
