<?xml version="1.0" encoding="iso-8859-1"?>
<!-- Generator: Adobe Illustrator 20.0.0, SVG Export Plug-In . SVG Version: 6.00 Build 0)  -->
<svg version="1.1" xmlns="http://www.w3.org/2000/svg" xmlns:xlink="http://www.w3.org/1999/xlink" x="0px" y="0px"
	 viewBox="0 0 30 40" style="enable-background:new 0 0 30 40;" xml:space="preserve" width="40px" height="30px" class="diy-icons">
<g id="DoctorHat">
	<path d="m 13.356989,3.9252725 c -0.246695,0.00211 -0.49689,0.028525 -0.691431,0.078547 L 2.6573826,6.577305 C 2.2686155,6.6772672 2.2477375,6.8340354 2.6119073,6.9276715 L 12.711548,9.524414 c 0.363212,0.09339 0.974458,0.088593 1.363226,-0.011369 l 8.25686,-2.1233845 v 5.5924235 c -0.363599,0.158948 -0.598812,0.517851 -0.599448,0.914673 -2.51e-4,0.552439 0.447501,1.000422 0.99994,1.000455 0.552641,2.52e-4 1.000708,-0.447814 1.000456,-1.000455 -4.3e-4,-0.39701 -0.235676,-0.756167 -0.599446,-0.915191 V 7.1839866 L 24.082948,6.9395592 C 24.472034,6.839515 24.491634,6.6820667 24.128422,6.5886741 L 14.029298,3.9919342 c -0.182084,-0.046818 -0.425617,-0.068778 -0.672309,-0.066662 z m -7.2300519,4.4609922 0,3.9007693 c -0.0067,0.706562 3.5496552,1.82417 7.0832899,1.86707 3.533635,0.0429 7.347641,-1.089859 7.350972,-1.86707 l 0,-3.8873337 -6.486425,1.6681157 c -0.388768,0.1 -1.000014,0.104728 -1.363226,0.01137 z"
	transform="translate(-15 0) scale(2.2 2.2)" />
</g>
<g id="Ebene_1">
</g>
</svg>
