<?xml version="1.0" encoding="utf-8"?>
<!-- Generator: Adobe Illustrator 18.1.1, SVG Export Plug-In . SVG Version: 6.00 Build 0)  -->
<svg version="1.1" id="Ebene_1" xmlns="http://www.w3.org/2000/svg" xmlns:xlink="http://www.w3.org/1999/xlink" x="0px" y="0px"
	 viewBox="0 0 24 24" width="50" height="50" enable-background="new 0 0 24 24" xml:space="preserve" fill="#00324b">
<rect fill="none" width="24" height="24"/>
<g>
	<g>
		<path d="M12,23c-3,0-5.8-1.2-7.8-3.2C2.2,17.8,1,15,1,12s1.2-5.8,3.2-7.8C6.2,2.2,9,1,12,1s5.8,1.2,7.8,3.2c2,2,3.2,4.8,3.2,7.8
			s-1.2,5.8-3.2,7.8C17.8,21.8,15,23,12,23z M12,3C9.5,3,7.3,4,5.6,5.6S3,9.5,3,12c0,2.5,1,4.8,2.6,6.4C7.3,20,9.5,21,12,21
			s4.7-1,6.4-2.6C20,16.7,21,14.5,21,12c0-2.5-1-4.7-2.6-6.4C16.7,4,14.5,3,12,3z M10.8,7c0,0.7,0.5,1.2,1.2,1.2
			c0.7,0,1.2-0.5,1.2-1.2S12.7,5.8,12,5.8C11.4,5.8,10.8,6.3,10.8,7z M11,18h2l0-8h-2L11,18z"/>
	</g>
</g>
</svg>
