<?xml version="1.0" encoding="utf-8"?>
<!-- Generator: Adobe Illustrator 18.1.1, SVG Export Plug-In . SVG Version: 6.00 Build 0)  -->
<svg version="1.1" id="Ebene_1" xmlns="http://www.w3.org/2000/svg" xmlns:xlink="http://www.w3.org/1999/xlink" x="0px" y="0px"
	 viewBox="0 0 24 24" width="30" height="30" enable-background="new 0 0 24 24" xml:space="preserve" fill="#00324b">
<rect fill="none" width="24" height="24"/>
<g>
	<path d="M12,2c1.9,0,5.4,1,5.4,5c0,4-2.7,6.5-2.7,6.5C14.2,13.9,14,14.4,14,15v1c0,1,0.7,1.8,1.7,2c0.1,0,4.6,0.8,5.9,4H2.4
		c1.3-3.2,5.7-4,5.9-4c1-0.2,1.7-1,1.7-2v-1c0-0.6-0.2-1.1-0.7-1.5c0,0-2.7-2.6-2.7-6.5C6.6,3,10.1,2,12,2 M12,0C8.8,0,4.6,2,4.6,7
		S8,15,8,15v1c0,0-8,1.2-8,8h24c0-6.8-8-8-8-8v-1c0,0,3.4-3,3.4-8S15.2,0,12,0L12,0z"/>
</g>
<g>
	<path d="M12.1,20.5c-3.2,0-6.3-3-6.4-3.1l0.7-0.7c0,0,2.9,2.9,5.7,2.9c2.7,0,5.5-2.8,5.6-2.8l0.7,0.7
		C18.2,17.5,15.3,20.5,12.1,20.5z"/>
</g>
</svg>
